<svg width="30" height="49" viewBox="0 0 30 49" fill="none" xmlns="http://www.w3.org/2000/svg">
<circle cx="15" cy="15" r="15" fill="#202953"/>
<path fill-rule="evenodd" clip-rule="evenodd" d="M15.0001 13.4343C14.1201 13.4343 13.4001 14.1582 13.4001 15.0429C13.4001 15.9276 14.1201 16.6515 15.0001 16.6515C15.8801 16.6515 16.6001 15.9276 16.6001 15.0429C16.6001 14.1582 15.8801 13.4343 15.0001 13.4343Z" fill="#DADADA"/>
<path fill-rule="evenodd" clip-rule="evenodd" d="M19.7999 15.043C19.7999 12.3808 17.6479 10.2173 14.9999 10.2173C12.3519 10.2173 10.2 12.3808 10.2 15.043C10.2 16.8285 11.168 18.3808 12.6 19.2173L13.3999 17.8178C12.448 17.2548 11.8 16.2334 11.8 15.043C11.8 13.2655 13.2319 11.8259 14.9999 11.8259C16.7679 11.8259 18.1999 13.2655 18.1999 15.043C18.1999 16.2334 17.5519 17.2548 16.5999 17.8178L17.3999 19.2173C18.8319 18.3808 19.7999 16.8285 19.7999 15.043Z" fill="#DADADA"/>
<path fill-rule="evenodd" clip-rule="evenodd" d="M15 7C10.584 7 7 10.6032 7 15.0429C7 18.0188 8.608 20.6086 10.992 22L11.792 20.6086C9.888 19.4906 8.6 17.4236 8.6 15.0429C8.6 11.4879 11.464 8.60858 15 8.60858C18.536 8.60858 21.4 11.4879 21.4 15.0429C21.4 17.4236 20.112 19.4906 18.2 20.6086L19 22C21.392 20.6086 23 18.0188 23 15.0429C23 10.6032 19.416 7 15 7V7Z" fill="#DADADA"/>
<rect x="14" y="26" width="2" height="23" fill="#202953"/>
</svg>
